<svg width="48" height="48" viewBox="0 0 48 48" fill="none" xmlns="http://www.w3.org/2000/svg">
<path d="M42 44H22M6 44H14M38 44V30M10 44V30" stroke="#061808" stroke-width="3" stroke-linecap="round"/>
<path d="M24 4H14.944C12.538 4 11.336 4 10.37 4.598C9.40202 5.194 8.86402 6.27 7.79002 8.422L4.98002 15.52C4.33202 17.16 3.76402 19.092 4.85602 20.478C5.37045 21.132 6.07606 21.6094 6.87456 21.8435C7.67305 22.0776 8.52469 22.0569 9.31086 21.7842C10.097 21.5115 10.7786 21.0004 11.2606 20.3221C11.7426 19.6438 12.0011 18.8321 12 18C12 19.0609 12.4214 20.0783 13.1716 20.8284C13.9217 21.5786 14.9391 22 16 22C17.0609 22 18.0783 21.5786 18.8284 20.8284C19.5786 20.0783 20 19.0609 20 18C20 19.0609 20.4214 20.0783 21.1716 20.8284C21.9217 21.5786 22.9391 22 24 22C25.0609 22 26.0783 21.5786 26.8284 20.8284C27.5786 20.0783 28 19.0609 28 18C28 19.0609 28.4214 20.0783 29.1716 20.8284C29.9217 21.5786 30.9391 22 32 22C33.0609 22 34.0783 21.5786 34.8284 20.8284C35.5786 20.0783 36 19.0609 36 18C35.9999 18.8315 36.2589 19.6423 36.741 20.3197C37.223 20.9972 37.9042 21.5075 38.6898 21.7799C39.4754 22.0522 40.3263 22.073 41.1242 21.8393C41.9222 21.6056 42.6275 21.1291 43.142 20.476C44.234 19.09 43.666 17.158 43.018 15.518L40.21 8.422C39.136 6.27 38.598 5.194 37.63 4.598C36.664 4 35.462 4 33.056 4H32" stroke="#061808" stroke-width="3" stroke-linecap="round" stroke-linejoin="round"/>
</svg>
